# xmcd
#
# Track frame offsets: 
#        150
#        19757
#        47797
#        64095
#        92170
#        134768
#        158749
#        170806
#        201956
#        211571
#        231529
#        257441
#        274041
#        290067
#        299757
#        320312
#        336858
#
# Disc length: 4778 seconds
#
# Revision: 1
# Processed by: cddbd v1.5.2PL0 Copyright (c) Steve Scherf et al.
# Submitted via: ExactAudioCopy v1.3
#
DISCID=0f12a811
DTITLE=Son House - Akella Presents - Greatest Bluesmen - vol. 08  CD1
DYEAR=2017
DGENRE=Blues
TTITLE0=Death Letter
TTITLE1=Louise McGhee
TTITLE2=A Down The Staff
TTITLE3=Sundown
TTITLE4=Levee Camp Moan
TTITLE5=Pony Blues
TTITLE6=Shake It And Break It
TTITLE7=Downhearted Blues
TTITLE8=Grinnin' In Your Face
TTITLE9=Motherless Children
TTITLE10=Preachin' Blues
TTITLE11=Empire State Express
TTITLE12=Yonder Comes My Mother (With Al Wilson)
TTITLE13=John The Revelator (Alternate Take)
TTITLE14=Pearline
TTITLE15=President Kennedy
TTITLE16=Levee Camp Moan (Alternate Take)
EXTD=
EXTT0=
EXTT1=
EXTT2=
EXTT3=
EXTT4=
EXTT5=
EXTT6=
EXTT7=
EXTT8=
EXTT9=
EXTT10=
EXTT11=
EXTT12=
EXTT13=
EXTT14=
EXTT15=
EXTT16=
PLAYORDER=
